{"glyphs":{"32":{"x_min":0,"x_max":0,"ha":300,"o":""},"33":{"x_min":20,"x_max":319,"ha":339,"o":"m 272 -219 l 66 -219 l 20 -728 l 20 -778 l 319 -778 l 319 -728 l 272 -219 z m 282 0 l 56 0 l 56 -164 l 282 -164 l 282 0 z"},"34":{"x_min":25,"x_max":331,"ha":356,"o":"m 316 -548 l 203 -548 l 188 -778 l 331 -778 l 316 -548 z m 153 -548 l 40 -548 l 25 -778 l 168 -778 l 153 -548 z"},"35":{"x_min":22,"x_max":710,"ha":732,"o":"m 256 0 l 113 0 l 113 -22 l 134 -193 l 22 -193 l 38 -332 l 151 -332 l 164 -437 l 42 -437 l 58 -576 l 182 -576 l 207 -778 l 349 -778 l 349 -756 l 326 -576 l 446 -576 l 471 -778 l 613 -778 l 613 -756 l 590 -576 l 710 -576 l 694 -437 l 573 -437 l 560 -332 l 690 -332 l 674 -193 l 543 -193 l 520 0 l 377 0 l 377 -22 l 398 -193 l 279 -193 l 256 0 z m 309 -437 l 296 -332 l 415 -332 l 428 -437 l 309 -437 z"},"36":{"x_min":16,"x_max":668,"ha":684,"o":"m 273 132 l 273 12 q 196 7 129 -8 q 61 -24 25 -40 l 25 -40 l 25 -238 l 245 -238 q 245 -206 258 -192 q 271 -179 307 -179 l 307 -179 q 339 -179 354 -189 q 368 -199 368 -219 l 368 -219 q 368 -233 356 -244 q 343 -256 310 -268 l 310 -268 q 199 -309 139 -343 q 78 -378 47 -426 q 16 -475 16 -551 l 16 -551 q 16 -654 76 -714 q 136 -774 273 -788 l 273 -788 l 273 -903 l 404 -903 l 404 -790 q 485 -785 551 -766 q 617 -748 649 -728 l 649 -728 l 649 -549 l 439 -549 q 439 -599 384 -599 l 384 -599 q 351 -599 337 -590 q 322 -582 322 -561 l 322 -561 q 322 -545 335 -537 q 348 -529 384 -518 l 384 -518 q 478 -488 537 -457 q 595 -427 632 -375 q 668 -324 668 -243 l 668 -243 q 668 -129 601 -65 q 533 -1 404 11 l 404 11 l 404 132 l 273 132 z"},"37":{"x_min":30,"x_max":855,"ha":885,"o":"m 193 -386 q 30 -386 30 -586 l 30 -586 q 30 -692 72 -740 q 114 -788 193 -788 l 193 -788 q 357 -788 357 -586 l 357 -586 q 357 -489 318 -437 q 279 -386 193 -386 l 193 -386 z m 193 -473 q 222 -473 222 -510 l 222 -510 l 222 -665 q 222 -701 193 -701 l 193 -701 q 165 -701 165 -665 l 165 -665 l 165 -510 q 165 -473 193 -473 l 193 -473 z m 262 0 l 159 0 l 159 -32 l 624 -778 l 726 -778 l 726 -746 l 262 0 z m 691 10 q 528 10 528 -190 l 528 -190 q 528 -296 570 -344 q 612 -392 691 -392 l 691 -392 q 855 -392 855 -190 l 855 -190 q 855 -93 816 -41 q 777 10 691 10 l 691 10 z m 691 -77 q 720 -77 720 -114 l 720 -114 l 720 -269 q 720 -305 691 -305 l 691 -305 q 663 -305 663 -269 l 663 -269 l 663 -114 q 663 -77 691 -77 l 691 -77 z"},"38":{"x_min":16,"x_max":814,"ha":828,"o":"m 350 14 q 189 14 103 -45 q 16 -105 16 -210 l 16 -210 q 16 -280 58 -331 q 100 -383 163 -409 l 163 -409 q 107 -449 79 -491 q 51 -533 51 -589 l 51 -589 q 51 -653 92 -699 q 133 -745 206 -768 q 278 -792 371 -792 l 371 -792 q 465 -792 543 -769 q 621 -746 659 -718 l 659 -718 l 659 -526 l 449 -526 l 449 -544 q 449 -580 432 -597 q 415 -614 381 -614 l 381 -614 q 318 -614 318 -565 l 318 -565 q 318 -546 334 -529 q 349 -512 383 -486 l 383 -486 l 546 -363 q 550 -384 550 -411 l 550 -411 l 550 -429 l 791 -429 l 791 -262 l 733 -262 l 724 -229 l 814 -161 l 692 0 l 619 -56 q 519 14 350 14 l 350 14 z m 376 -164 q 425 -164 456 -182 l 456 -182 l 329 -280 q 310 -271 299 -255 q 288 -240 288 -221 l 288 -221 q 288 -191 311 -177 q 333 -164 376 -164 l 376 -164 z"},"39":{"x_min":25,"x_max":168,"ha":193,"o":"m 153 -548 l 40 -548 l 25 -778 l 168 -778 l 153 -548 z"},"40":{"x_min":36,"x_max":364,"ha":374,"o":"m 255 232 q 158 145 97 -4 q 36 -153 36 -328 l 36 -328 q 36 -503 97 -652 q 158 -801 255 -888 l 255 -888 l 364 -838 q 294 -736 258 -607 q 222 -478 222 -328 l 222 -328 q 222 -178 258 -49 q 294 80 364 182 l 364 182 l 255 232 z"},"41":{"x_min":10,"x_max":338,"ha":374,"o":"m 119 232 l 10 182 q 80 80 116 -49 q 152 -178 152 -328 l 152 -328 q 152 -478 116 -607 q 80 -736 10 -838 l 10 -838 l 119 -888 q 216 -801 277 -652 q 338 -503 338 -328 l 338 -328 q 338 -153 277 -4 q 216 145 119 232 l 119 232 z"},"42":{"x_min":16,"x_max":393,"ha":409,"o":"m 265 -409 l 145 -409 l 145 -424 l 163 -518 l 88 -458 l 76 -451 l 16 -551 l 27 -560 l 127 -593 l 27 -626 l 16 -633 l 76 -736 l 88 -729 l 163 -667 l 145 -761 l 145 -778 l 265 -778 l 265 -761 l 247 -667 l 321 -729 l 332 -736 l 393 -633 l 381 -626 l 280 -593 l 381 -560 l 393 -551 l 332 -451 l 321 -458 l 247 -518 l 265 -424 l 265 -409 z"},"43":{"x_min":40,"x_max":536,"ha":576,"o":"m 372 -94 l 205 -94 l 205 -259 l 40 -259 l 40 -426 l 205 -426 l 205 -591 l 372 -591 l 372 -426 l 536 -426 l 536 -259 l 372 -259 l 372 -94 z"},"44":{"x_min":40,"x_max":197,"ha":245,"o":"m 126 161 l 40 161 l 92 0 l 41 0 l 41 -164 l 197 -164 l 197 0 l 126 161 z"},"45":{"x_min":34,"x_max":355,"ha":389,"o":"m 355 -199 l 34 -199 l 34 -363 l 355 -363 l 355 -199 z"},"46":{"x_min":40,"x_max":196,"ha":244,"o":"m 196 0 l 40 0 l 40 -164 l 196 -164 l 196 0 z"},"47":{"x_min":-20,"x_max":443,"ha":423,"o":"m 123 151 l -20 151 l -20 119 l 301 -842 l 443 -842 l 443 -810 l 123 151 z"},"48":{"x_min":14,"x_max":718,"ha":732,"o":"m 366 14 q 197 14 106 -82 q 14 -178 14 -389 l 14 -389 q 14 -600 106 -696 q 197 -792 366 -792 l 366 -792 q 535 -792 627 -696 q 718 -600 718 -389 l 718 -389 q 718 -194 634 -90 q 549 14 366 14 l 366 14 z m 366 -164 q 434 -164 434 -238 l 434 -238 l 434 -540 q 434 -614 366 -614 l 366 -614 q 298 -614 298 -540 l 298 -540 l 298 -238 q 298 -164 366 -164 l 366 -164 z"},"49":{"x_min":14,"x_max":488,"ha":522,"o":"m 488 0 l 44 0 l 44 -164 l 140 -164 l 140 -614 l 14 -614 l 14 -727 l 236 -778 l 404 -778 l 404 -164 l 488 -164 l 488 0 z"},"50":{"x_min":12,"x_max":626,"ha":649,"o":"m 12 0 l 12 -86 q 12 -172 38 -238 q 63 -304 121 -362 q 179 -421 281 -484 l 281 -484 q 311 -503 324 -516 q 336 -530 336 -549 l 336 -549 q 336 -590 277 -590 l 277 -590 q 233 -590 176 -567 q 119 -544 73 -509 l 73 -509 l 14 -722 q 78 -754 161 -776 q 244 -799 328 -799 l 328 -799 q 466 -799 542 -738 q 618 -677 618 -565 l 618 -565 q 618 -505 592 -459 q 565 -414 528 -383 q 490 -352 430 -312 l 430 -312 q 363 -268 332 -236 q 300 -205 300 -164 l 300 -164 l 421 -164 l 421 -221 l 626 -221 l 626 0 l 12 0 z"},"51":{"x_min":14,"x_max":611,"ha":623,"o":"m 486 -397 q 517 -389 546 -364 q 574 -340 593 -303 q 611 -266 611 -221 l 611 -221 q 611 -111 533 -48 q 454 14 300 14 l 300 14 q 227 14 154 -2 q 81 -19 24 -43 l 24 -43 l 24 -256 q 86 -229 153 -212 q 219 -195 279 -195 l 279 -195 q 321 -195 341 -208 q 360 -221 360 -251 l 360 -251 q 360 -309 290 -309 l 290 -309 l 218 -309 l 218 -473 l 274 -473 q 340 -473 340 -529 l 340 -529 q 340 -583 274 -583 l 274 -583 q 226 -583 174 -560 q 122 -538 73 -502 l 73 -502 l 14 -715 q 75 -747 153 -769 q 231 -792 310 -792 l 310 -792 q 448 -792 522 -734 q 596 -676 596 -570 l 596 -570 q 596 -504 565 -461 q 534 -419 486 -397 l 486 -397 z"},"52":{"x_min":18,"x_max":676,"ha":694,"o":"m 607 0 l 343 0 l 343 -125 l 18 -125 l 18 -289 l 363 -778 l 607 -778 l 607 -277 l 676 -277 l 676 -125 l 607 -125 l 607 0 z m 343 -474 l 203 -277 l 343 -277 l 343 -474 z"},"53":{"x_min":22,"x_max":637,"ha":651,"o":"m 407 -514 q 519 -514 578 -448 q 637 -382 637 -269 l 637 -269 q 637 -184 599 -120 q 560 -56 484 -21 q 408 14 300 14 l 300 14 q 227 14 154 -2 q 81 -19 24 -43 l 24 -43 l 24 -256 q 154 -195 260 -195 l 260 -195 q 315 -195 342 -217 q 369 -240 369 -288 l 369 -288 q 369 -323 353 -343 q 337 -363 302 -363 l 302 -363 q 275 -363 259 -349 q 242 -336 232 -311 l 232 -311 l 22 -311 l 65 -778 l 597 -778 l 597 -584 l 265 -584 l 256 -481 q 319 -514 407 -514 l 407 -514 z"},"54":{"x_min":18,"x_max":685,"ha":693,"o":"m 449 -491 q 560 -491 623 -427 q 685 -363 685 -249 l 685 -249 q 685 -122 602 -54 q 518 14 366 14 l 366 14 q 190 14 104 -81 q 18 -177 18 -374 l 18 -374 q 18 -590 120 -691 q 221 -792 399 -792 l 399 -792 q 472 -792 535 -779 q 598 -767 636 -747 l 636 -747 l 636 -545 q 598 -562 549 -572 q 500 -583 445 -583 l 445 -583 q 302 -583 302 -477 l 302 -477 l 302 -465 q 333 -476 372 -483 q 411 -491 449 -491 l 449 -491 z m 370 -164 q 404 -164 421 -184 q 438 -205 438 -249 l 438 -249 q 438 -289 421 -311 q 403 -334 367 -334 l 367 -334 q 333 -334 302 -321 l 302 -321 l 302 -241 q 302 -201 319 -182 q 336 -164 370 -164 l 370 -164 z"},"55":{"x_min":10,"x_max":638,"ha":648,"o":"m 122 0 q 122 -89 160 -197 q 197 -305 254 -406 q 311 -508 369 -584 l 369 -584 l 220 -584 l 220 -492 l 10 -492 l 10 -778 l 638 -778 l 638 -626 q 583 -544 530 -434 q 476 -325 441 -209 q 405 -94 405 0 l 405 0 l 122 0 z"},"56":{"x_min":10,"x_max":690,"ha":700,"o":"m 553 -404 q 609 -384 650 -337 q 690 -291 690 -215 l 690 -215 q 690 -102 604 -44 q 517 14 350 14 l 350 14 q 183 14 97 -42 q 10 -99 10 -209 l 10 -209 q 10 -288 54 -336 q 97 -384 157 -404 l 157 -404 q 104 -423 68 -465 q 32 -508 32 -575 l 32 -575 q 32 -682 113 -737 q 193 -792 350 -792 l 350 -792 q 506 -792 586 -737 q 666 -682 666 -575 l 666 -575 q 666 -507 634 -465 q 602 -423 553 -404 l 553 -404 z m 350 -614 q 282 -614 282 -544 l 282 -544 q 282 -478 350 -478 l 350 -478 q 418 -478 418 -544 l 418 -544 q 418 -614 350 -614 l 350 -614 z m 350 -164 q 428 -164 428 -244 l 428 -244 q 428 -284 408 -305 q 388 -326 350 -326 l 350 -326 q 312 -326 292 -305 q 272 -284 272 -244 l 272 -244 q 272 -164 350 -164 l 350 -164 z"},"57":{"x_min":10,"x_max":677,"ha":693,"o":"m 325 -792 q 503 -792 590 -696 q 677 -601 677 -404 l 677 -404 q 677 -188 576 -87 q 474 14 296 14 l 296 14 q 223 14 160 2 q 97 -11 59 -31 l 59 -31 l 59 -233 q 97 -216 146 -205 q 195 -195 250 -195 l 250 -195 q 393 -195 393 -301 l 393 -301 l 393 -312 q 329 -287 255 -287 l 255 -287 q 139 -287 75 -349 q 10 -412 10 -524 l 10 -524 q 10 -657 92 -724 q 174 -792 325 -792 l 325 -792 z m 257 -528 q 257 -488 275 -466 q 292 -444 328 -444 l 328 -444 q 362 -444 393 -457 l 393 -457 l 393 -537 q 393 -577 376 -595 q 359 -614 325 -614 l 325 -614 q 291 -614 274 -593 q 257 -572 257 -528 l 257 -528 z"},"58":{"x_min":40,"x_max":196,"ha":244,"o":"m 196 -325 l 40 -325 l 40 -489 l 196 -489 l 196 -325 z m 196 0 l 40 0 l 40 -164 l 196 -164 l 196 0 z"},"59":{"x_min":40,"x_max":197,"ha":245,"o":"m 197 -325 l 41 -325 l 41 -489 l 197 -489 l 197 -325 z m 126 161 l 40 161 l 92 0 l 41 0 l 41 -164 l 197 -164 l 197 0 l 126 161 z"},"60":{"x_min":36,"x_max":455,"ha":499,"o":"m 455 -69 l 434 -69 l 36 -230 l 36 -414 l 434 -576 l 455 -576 l 455 -420 l 184 -328 l 184 -317 l 455 -224 l 455 -69 z"},"61":{"x_min":40,"x_max":455,"ha":495,"o":"m 455 -377 l 40 -377 l 40 -543 l 455 -543 l 455 -377 z m 455 -132 l 40 -132 l 40 -299 l 455 -299 l 455 -132 z"},"62":{"x_min":44,"x_max":463,"ha":499,"o":"m 65 -69 l 44 -69 l 44 -224 l 315 -317 l 315 -328 l 44 -420 l 44 -576 l 65 -576 l 463 -414 l 463 -230 l 65 -69 z"},"63":{"x_min":14,"x_max":620,"ha":630,"o":"m 153 -219 l 153 -265 q 153 -310 170 -343 q 186 -377 209 -398 q 232 -419 268 -444 l 268 -444 q 304 -469 321 -487 q 338 -505 338 -530 l 338 -530 q 338 -570 278 -570 l 278 -570 q 231 -570 173 -552 q 115 -534 67 -511 l 67 -511 l 14 -715 q 80 -746 167 -769 q 254 -792 340 -792 l 340 -792 q 425 -792 489 -766 q 552 -741 586 -694 q 620 -647 620 -585 l 620 -585 q 620 -531 603 -494 q 585 -457 560 -433 q 535 -410 494 -382 l 494 -382 q 460 -358 440 -340 q 419 -322 406 -296 q 392 -270 392 -234 l 392 -234 l 392 -219 l 153 -219 z m 391 0 l 153 0 l 153 -164 l 391 -164 l 391 0 z"},"64":{"x_min":32,"x_max":1112,"ha":1148,"o":"m 484 236 q 264 236 148 123 q 32 10 32 -215 l 32 -215 q 32 -388 111 -519 q 190 -650 326 -721 q 461 -792 625 -792 l 625 -792 q 775 -792 885 -739 q 995 -687 1054 -590 q 1112 -493 1112 -363 l 1112 -363 q 1112 -238 1070 -153 q 1028 -68 961 -27 q 894 14 820 14 l 820 14 q 747 14 709 -15 q 670 -45 659 -89 l 659 -89 q 631 -49 583 -17 q 534 14 472 14 l 472 14 q 377 14 327 -52 q 276 -118 276 -235 l 276 -235 q 276 -345 320 -420 q 363 -496 439 -533 q 514 -570 610 -570 l 610 -570 q 671 -570 739 -553 q 807 -537 866 -510 l 866 -510 l 866 -161 q 866 -150 872 -144 q 878 -139 887 -139 l 887 -139 q 903 -139 918 -163 q 932 -188 941 -234 q 950 -280 950 -341 l 950 -341 q 950 -492 861 -567 q 771 -642 604 -642 l 604 -642 q 483 -642 390 -590 q 297 -538 246 -444 q 194 -351 194 -229 l 194 -229 q 194 -65 276 10 q 357 84 500 84 l 500 84 q 565 84 619 77 q 673 69 699 60 l 699 60 l 699 205 q 664 217 605 227 q 546 236 484 236 l 484 236 z m 566 -154 q 586 -154 605 -166 q 624 -178 636 -195 l 636 -195 l 636 -425 q 610 -432 586 -432 l 586 -432 q 556 -432 538 -407 q 520 -383 520 -348 l 520 -348 l 520 -208 q 520 -154 566 -154 l 566 -154 z"},"65":{"x_min":12,"x_max":794,"ha":806,"o":"m 585 -778 l 754 -164 l 794 -164 l 794 0 l 402 0 l 402 -164 l 462 -164 l 446 -244 l 310 -244 l 294 -164 l 354 -164 l 354 0 l 12 0 l 12 -164 l 52 -164 l 221 -778 l 585 -778 z m 373 -549 l 332 -350 l 424 -350 l 383 -549 l 373 -549 z"},"66":{"x_min":20,"x_max":763,"ha":775,"o":"m 20 0 l 20 -164 l 70 -164 l 70 -614 l 20 -614 l 20 -778 l 479 -778 q 604 -778 674 -727 q 744 -676 744 -581 l 744 -581 q 744 -522 716 -481 q 688 -441 651 -420 q 613 -400 578 -393 l 578 -393 l 578 -383 q 649 -376 706 -338 q 763 -300 763 -202 l 763 -202 q 763 -97 684 -48 q 605 0 479 0 l 479 0 l 20 0 z m 350 -450 l 404 -450 q 433 -450 448 -465 q 462 -481 462 -514 l 462 -514 l 462 -550 q 462 -583 448 -598 q 433 -614 404 -614 l 404 -614 l 350 -614 l 350 -450 z m 350 -164 l 411 -164 q 440 -164 455 -179 q 469 -195 469 -228 l 469 -228 l 469 -272 q 469 -305 455 -320 q 440 -336 411 -336 l 411 -336 l 350 -336 l 350 -164 z"},"67":{"x_min":14,"x_max":704,"ha":722,"o":"m 408 14 q 219 14 117 -82 q 14 -178 14 -389 l 14 -389 q 14 -792 406 -792 l 406 -792 q 501 -792 583 -769 q 664 -746 704 -718 l 704 -718 l 704 -468 l 464 -468 l 464 -540 q 464 -578 447 -596 q 430 -614 396 -614 l 396 -614 q 362 -614 345 -596 q 328 -578 328 -540 l 328 -540 l 328 -238 q 328 -200 345 -182 q 362 -164 396 -164 l 396 -164 q 430 -164 447 -182 q 464 -200 464 -238 l 464 -238 l 464 -319 l 704 -319 l 704 -60 q 663 -32 583 -9 q 502 14 408 14 l 408 14 z"},"68":{"x_min":20,"x_max":790,"ha":804,"o":"m 20 0 l 20 -164 l 70 -164 l 70 -613 l 20 -613 l 20 -778 l 426 -778 q 593 -778 692 -686 q 790 -595 790 -389 l 790 -389 q 790 -183 692 -91 q 593 0 426 0 l 426 0 l 20 0 z m 350 -164 l 408 -164 q 442 -164 459 -182 q 476 -200 476 -238 l 476 -238 l 476 -540 q 476 -614 408 -614 l 408 -614 l 350 -614 l 350 -164 z"},"69":{"x_min":20,"x_max":695,"ha":713,"o":"m 695 0 l 20 0 l 20 -164 l 70 -164 l 70 -614 l 20 -614 l 20 -778 l 695 -778 l 695 -476 l 471 -476 l 471 -614 l 350 -614 l 350 -456 l 438 -456 l 438 -342 l 350 -342 l 350 -164 l 471 -164 l 471 -322 l 695 -322 l 695 0 z"},"70":{"x_min":20,"x_max":618,"ha":632,"o":"m 481 0 l 20 0 l 20 -164 l 70 -164 l 70 -614 l 20 -614 l 20 -778 l 618 -778 l 618 -519 l 441 -519 l 441 -614 l 350 -614 l 350 -448 l 501 -448 l 501 -334 l 350 -334 l 350 -164 l 481 -164 l 481 0 z"},"71":{"x_min":14,"x_max":774,"ha":782,"o":"m 774 -399 l 774 -250 l 724 -250 l 724 -50 q 680 -25 596 -5 q 511 14 413 14 l 413 14 q 226 14 120 -84 q 14 -183 14 -389 l 14 -389 q 14 -600 120 -696 q 225 -792 421 -792 l 421 -792 q 516 -792 599 -772 q 682 -752 724 -727 l 724 -727 l 724 -488 l 474 -488 l 474 -535 q 474 -577 457 -595 q 439 -614 401 -614 l 401 -614 q 363 -614 346 -595 q 328 -577 328 -535 l 328 -535 l 328 -243 q 328 -201 346 -182 q 363 -164 401 -164 l 401 -164 q 439 -164 457 -182 q 474 -201 474 -243 l 474 -243 l 474 -250 l 420 -250 l 420 -399 l 774 -399 z"},"72":{"x_min":20,"x_max":820,"ha":840,"o":"m 820 -778 l 820 -614 l 770 -614 l 770 -164 l 820 -164 l 820 0 l 442 0 l 442 -164 l 490 -164 l 490 -329 l 350 -329 l 350 -164 l 398 -164 l 398 0 l 20 0 l 20 -164 l 70 -164 l 70 -614 l 20 -614 l 20 -778 l 398 -778 l 398 -614 l 350 -614 l 350 -462 l 490 -462 l 490 -614 l 442 -614 l 442 -778 l 820 -778 z"},"73":{"x_min":20,"x_max":400,"ha":420,"o":"m 400 0 l 20 0 l 20 -164 l 70 -164 l 70 -614 l 20 -614 l 20 -778 l 400 -778 l 400 -614 l 350 -614 l 350 -164 l 400 -164 l 400 0 z"},"74":{"x_min":12,"x_max":648,"ha":666,"o":"m 273 14 q 196 14 127 -3 q 58 -21 12 -52 l 12 -52 l 12 -228 l 212 -228 l 212 -218 q 212 -164 264 -164 l 264 -164 q 291 -164 305 -178 q 318 -193 318 -224 l 318 -224 l 318 -614 l 228 -614 l 228 -778 l 648 -778 l 648 -614 l 598 -614 l 598 -278 q 598 -131 512 -58 q 426 14 273 14 l 273 14 z"},"75":{"x_min":20,"x_max":819,"ha":835,"o":"m 597 -476 l 769 -164 l 819 -164 l 819 0 l 546 0 l 396 -310 l 350 -272 l 350 -164 l 398 -164 l 398 0 l 20 0 l 20 -164 l 70 -164 l 70 -614 l 20 -614 l 20 -778 l 398 -778 l 398 -614 l 350 -614 l 350 -482 l 505 -614 l 442 -614 l 442 -778 l 814 -778 l 814 -614 l 764 -614 l 597 -476 z"},"76":{"x_min":20,"x_max":639,"ha":653,"o":"m 639 0 l 20 0 l 20 -164 l 70 -164 l 70 -614 l 20 -614 l 20 -778 l 442 -778 l 442 -614 l 350 -614 l 350 -164 l 440 -164 l 440 -256 l 639 -256 l 639 0 z"},"77":{"x_min":20,"x_max":1123,"ha":1143,"o":"m 1123 -778 l 1123 -614 l 1073 -614 l 1073 -164 l 1123 -164 l 1123 0 l 745 0 l 745 -164 l 793 -164 l 793 -514 l 623 0 l 475 0 l 300 -509 l 300 -164 l 348 -164 l 348 0 l 20 0 l 20 -164 l 70 -164 l 70 -614 l 20 -614 l 20 -778 l 478 -778 l 582 -466 l 682 -778 l 1123 -778 z"},"78":{"x_min":20,"x_max":924,"ha":942,"o":"m 596 -614 l 596 -778 l 924 -778 l 924 -614 l 874 -614 l 874 0 l 593 0 l 300 -451 l 300 -164 l 348 -164 l 348 0 l 20 0 l 20 -164 l 70 -164 l 70 -614 l 20 -614 l 20 -778 l 381 -778 l 644 -377 l 644 -614 l 596 -614 z"},"79":{"x_min":14,"x_max":778,"ha":792,"o":"m 396 14 q 213 14 114 -82 q 14 -178 14 -389 l 14 -389 q 14 -600 114 -696 q 213 -792 396 -792 l 396 -792 q 579 -792 679 -696 q 778 -600 778 -389 l 778 -389 q 778 -178 679 -82 q 579 14 396 14 l 396 14 z m 396 -164 q 430 -164 447 -182 q 464 -200 464 -238 l 464 -238 l 464 -540 q 464 -578 447 -596 q 430 -614 396 -614 l 396 -614 q 362 -614 345 -596 q 328 -578 328 -540 l 328 -540 l 328 -238 q 328 -199 345 -181 q 362 -164 396 -164 l 396 -164 z"},"80":{"x_min":20,"x_max":724,"ha":738,"o":"m 20 0 l 20 -164 l 70 -164 l 70 -614 l 20 -614 l 20 -778 l 459 -778 q 588 -778 656 -722 q 724 -667 724 -543 l 724 -543 q 724 -419 656 -363 q 588 -308 459 -308 l 459 -308 l 350 -308 l 350 -164 l 446 -164 l 446 0 l 20 0 z m 350 -450 l 384 -450 q 442 -450 442 -514 l 442 -514 l 442 -550 q 442 -583 428 -598 q 413 -614 384 -614 l 384 -614 l 350 -614 l 350 -450 z"},"81":{"x_min":14,"x_max":794,"ha":810,"o":"m 794 78 q 582 78 455 65 q 327 52 235 10 q 143 -33 81 -118 l 81 -118 q 14 -215 14 -389 l 14 -389 q 14 -592 115 -692 q 215 -792 396 -792 l 396 -792 q 576 -792 677 -703 q 778 -615 778 -439 l 778 -439 q 778 -363 754 -296 q 729 -230 669 -174 l 669 -174 l 674 -164 l 794 -164 l 794 78 z m 396 -164 q 464 -164 464 -238 l 464 -238 l 464 -540 q 464 -614 396 -614 l 396 -614 q 328 -614 328 -540 l 328 -540 l 328 -238 q 328 -164 396 -164 l 396 -164 z"},"82":{"x_min":20,"x_max":784,"ha":800,"o":"m 20 0 l 20 -164 l 70 -164 l 70 -614 l 20 -614 l 20 -778 l 479 -778 q 608 -778 676 -725 q 744 -672 744 -553 l 744 -553 q 744 -486 717 -437 q 690 -388 640 -369 l 640 -369 l 641 -359 q 737 -344 737 -241 l 737 -241 l 737 -164 l 784 -164 l 784 0 l 467 0 l 467 -235 q 467 -274 456 -294 q 444 -314 420 -321 q 395 -328 350 -328 l 350 -328 l 350 -164 l 416 -164 l 416 0 l 20 0 z m 350 -450 l 404 -450 q 433 -450 448 -465 q 462 -481 462 -514 l 462 -514 l 462 -550 q 462 -583 448 -598 q 433 -614 404 -614 l 404 -614 l 350 -614 l 350 -450 z"},"83":{"x_min":8,"x_max":666,"ha":674,"o":"m 330 14 q 234 14 149 -2 q 63 -19 17 -40 l 17 -40 l 17 -238 l 237 -238 q 237 -207 251 -193 q 265 -179 302 -179 l 302 -179 q 333 -179 347 -188 q 360 -198 360 -217 l 360 -217 q 360 -233 347 -244 q 334 -256 302 -268 l 302 -268 l 216 -298 q 105 -340 57 -397 q 8 -454 8 -551 l 8 -551 q 8 -669 86 -730 q 163 -792 344 -792 l 344 -792 q 431 -792 508 -774 q 584 -757 631 -728 l 631 -728 l 631 -549 l 431 -549 q 431 -599 369 -599 l 369 -599 q 339 -599 327 -591 q 314 -584 314 -565 l 314 -565 q 314 -548 329 -538 q 343 -528 376 -517 l 376 -517 l 463 -487 q 569 -451 618 -393 q 666 -336 666 -243 l 666 -243 q 666 -116 581 -51 q 495 14 330 14 l 330 14 z"},"84":{"x_min":14,"x_max":766,"ha":780,"o":"m 766 -778 l 766 -536 l 594 -536 l 594 -614 l 530 -614 l 530 -164 l 600 -164 l 600 0 l 180 0 l 180 -164 l 250 -164 l 250 -614 l 186 -614 l 186 -536 l 14 -536 l 14 -778 l 766 -778 z"},"85":{"x_min":16,"x_max":765,"ha":781,"o":"m 394 14 q 237 14 152 -55 q 66 -124 66 -279 l 66 -279 l 66 -614 l 16 -614 l 16 -778 l 386 -778 l 386 -614 l 346 -614 l 346 -228 q 346 -195 361 -179 q 375 -164 404 -164 l 404 -164 q 433 -164 448 -179 q 462 -195 462 -228 l 462 -228 l 462 -614 l 422 -614 l 422 -778 l 765 -778 l 765 -614 l 715 -614 l 715 -279 q 715 -124 632 -55 q 549 14 394 14 l 394 14 z"},"86":{"x_min":12,"x_max":774,"ha":786,"o":"m 440 -614 l 440 -778 l 774 -778 l 774 -614 l 734 -614 l 555 0 l 231 0 l 52 -614 l 12 -614 l 12 -778 l 396 -778 l 396 -614 l 344 -614 l 413 -279 l 423 -279 l 492 -614 l 440 -614 z"},"87":{"x_min":12,"x_max":1195,"ha":1207,"o":"m 875 -614 l 875 -778 l 1195 -778 l 1195 -614 l 1155 -614 l 1006 0 l 707 0 l 616 -432 l 606 -432 l 510 0 l 211 0 l 52 -614 l 12 -614 l 12 -778 l 382 -778 l 382 -614 l 344 -614 l 383 -359 l 393 -359 l 488 -778 l 776 -778 l 864 -359 l 874 -359 l 913 -614 l 875 -614 z"},"88":{"x_min":14,"x_max":786,"ha":800,"o":"m 541 -401 l 744 -164 l 786 -164 l 786 0 l 408 0 l 408 -164 l 449 -164 l 391 -246 l 381 -246 l 323 -164 l 364 -164 l 364 0 l 14 0 l 14 -164 l 66 -164 l 258 -380 l 58 -614 l 16 -614 l 16 -778 l 391 -778 l 391 -614 l 353 -614 l 408 -532 l 418 -532 l 473 -614 l 435 -614 l 435 -778 l 782 -778 l 782 -614 l 730 -614 l 541 -401 z"},"89":{"x_min":12,"x_max":764,"ha":776,"o":"m 457 -614 l 457 -778 l 764 -778 l 764 -614 l 724 -614 l 531 -268 l 531 -164 l 581 -164 l 581 0 l 201 0 l 201 -164 l 251 -164 l 251 -268 l 52 -614 l 12 -614 l 12 -778 l 399 -778 l 399 -614 l 364 -614 l 423 -459 l 433 -459 l 492 -614 l 457 -614 z"},"90":{"x_min":14,"x_max":675,"ha":689,"o":"m 476 -164 l 476 -246 l 675 -246 l 675 0 l 14 0 l 14 -144 l 322 -614 l 218 -614 l 218 -532 l 19 -532 l 19 -778 l 659 -778 l 659 -634 l 352 -164 l 476 -164 z"},"91":{"x_min":44,"x_max":323,"ha":325,"o":"m 323 157 l 311 286 l 44 263 l 44 -873 l 311 -896 l 323 -767 l 212 -744 l 212 134 l 323 157 z"},"92":{"x_min":-20,"x_max":444,"ha":424,"o":"m 444 151 l 300 151 l -20 -810 l -20 -842 l 123 -842 l 444 119 l 444 151 z"},"93":{"x_min":2,"x_max":281,"ha":325,"o":"m 281 263 l 14 286 l 2 157 l 113 134 l 113 -744 l 2 -767 l 14 -896 l 281 -873 l 281 263 z"},"94":{"x_min":14,"x_max":399,"ha":413,"o":"m 140 -522 l 14 -522 l 14 -537 l 131 -778 l 282 -778 l 399 -537 l 399 -522 l 273 -522 l 211 -664 l 202 -664 l 140 -522 z"},"95":{"x_min":0,"x_max":600,"ha":600,"o":"m 600 166 l 0 166 l 0 72 l 600 72 l 600 166 z"},"96":{"x_min":40,"x_max":363,"ha":403,"o":"m 363 -611 l 203 -611 l 40 -751 l 40 -778 l 254 -778 l 363 -626 l 363 -611 z"},"97":{"x_min":18,"x_max":601,"ha":615,"o":"m 557 -164 l 601 -164 l 601 0 l 337 0 l 337 -68 q 315 -36 276 -11 q 236 14 179 14 l 179 14 q 104 14 61 -26 q 18 -66 18 -139 l 18 -139 q 18 -328 339 -333 l 339 -333 q 336 -367 313 -379 q 290 -392 235 -392 l 235 -392 q 190 -392 139 -382 q 87 -373 44 -357 l 44 -357 l 44 -541 q 97 -554 159 -562 q 221 -570 280 -570 l 280 -570 q 429 -570 493 -516 q 557 -462 557 -349 l 557 -349 l 557 -164 z m 337 -228 l 337 -234 q 292 -234 268 -222 q 243 -210 243 -182 l 243 -182 q 243 -165 254 -154 q 264 -144 283 -144 l 283 -144 q 309 -144 323 -166 q 337 -188 337 -228 l 337 -228 z"},"98":{"x_min":18,"x_max":652,"ha":662,"o":"m 447 14 q 396 14 357 -11 q 317 -36 292 -68 l 292 -68 l 292 0 l 18 0 l 18 -164 l 62 -164 l 62 -614 l 18 -614 l 18 -778 l 292 -778 l 292 -488 q 317 -520 357 -545 q 396 -570 447 -570 l 447 -570 q 549 -570 601 -494 q 652 -418 652 -278 l 652 -278 q 652 -138 601 -62 q 549 14 447 14 l 447 14 z m 350 -164 q 379 -164 394 -179 q 408 -195 408 -228 l 408 -228 l 408 -328 q 408 -361 394 -376 q 379 -392 350 -392 l 350 -392 q 321 -392 307 -376 q 292 -361 292 -328 l 292 -328 l 292 -228 q 292 -195 307 -179 q 321 -164 350 -164 l 350 -164 z"},"99":{"x_min":14,"x_max":546,"ha":562,"o":"m 317 14 q 174 14 94 -60 q 14 -135 14 -278 l 14 -278 q 14 -421 94 -495 q 174 -570 316 -570 l 316 -570 q 385 -570 448 -551 q 511 -532 546 -508 l 546 -508 l 546 -310 l 374 -310 l 374 -328 q 374 -361 360 -376 q 346 -392 316 -392 l 316 -392 q 258 -392 258 -328 l 258 -328 l 258 -242 q 258 -164 347 -164 l 347 -164 q 430 -164 540 -182 l 540 -182 l 540 -25 q 506 -10 445 2 q 383 14 317 14 l 317 14 z"},"100":{"x_min":10,"x_max":644,"ha":658,"o":"m 215 14 q 113 14 62 -62 q 10 -138 10 -278 l 10 -278 q 10 -418 62 -494 q 113 -570 215 -570 l 215 -570 q 266 -570 306 -545 q 345 -520 370 -488 l 370 -488 l 370 -614 l 311 -614 l 311 -778 l 600 -778 l 600 -164 l 644 -164 l 644 0 l 370 0 l 370 -68 q 345 -36 306 -11 q 266 14 215 14 l 215 14 z m 312 -164 q 341 -164 356 -179 q 370 -195 370 -228 l 370 -228 l 370 -328 q 370 -361 356 -376 q 341 -392 312 -392 l 312 -392 q 283 -392 269 -376 q 254 -361 254 -328 l 254 -328 l 254 -228 q 254 -195 269 -179 q 283 -164 312 -164 l 312 -164 z"},"101":{"x_min":14,"x_max":582,"ha":594,"o":"m 316 14 q 174 14 94 -60 q 14 -135 14 -278 l 14 -278 q 14 -421 94 -495 q 174 -570 316 -570 l 316 -570 q 457 -570 520 -496 q 582 -423 582 -314 l 582 -314 l 582 -242 l 258 -242 l 258 -236 q 258 -199 280 -181 q 302 -164 353 -164 l 353 -164 q 414 -164 469 -173 q 524 -182 565 -196 l 565 -196 l 565 -36 q 530 -17 463 -1 q 395 14 316 14 l 316 14 z m 258 -352 l 374 -352 l 374 -364 q 374 -398 360 -413 q 345 -428 316 -428 l 316 -428 q 287 -428 273 -412 q 258 -397 258 -364 l 258 -364 l 258 -352 z"},"102":{"x_min":18,"x_max":459,"ha":384,"o":"m 18 0 l 18 -164 l 62 -164 l 62 -392 l 18 -392 l 18 -556 l 64 -556 q 64 -678 124 -735 q 183 -792 297 -792 l 297 -792 q 352 -792 396 -784 q 439 -776 459 -766 l 459 -766 l 459 -609 q 406 -614 361 -614 l 361 -614 q 322 -614 307 -601 q 292 -588 292 -556 l 292 -556 l 370 -556 l 370 -392 l 292 -392 l 292 -164 l 370 -164 l 370 0 l 18 0 z"},"103":{"x_min":10,"x_max":644,"ha":654,"o":"m 311 236 q 239 236 174 226 q 108 216 72 203 l 72 203 l 72 39 q 178 58 262 58 l 262 58 q 319 58 345 41 q 370 23 370 -25 l 370 -25 l 370 -68 q 345 -36 306 -11 q 266 14 215 14 l 215 14 q 113 14 62 -62 q 10 -138 10 -278 l 10 -278 q 10 -418 62 -494 q 113 -570 215 -570 l 215 -570 q 266 -570 306 -545 q 345 -520 370 -488 l 370 -488 l 370 -556 l 644 -556 l 644 -392 l 600 -392 l 600 -40 q 600 105 528 171 q 456 236 311 236 l 311 236 z m 312 -164 q 341 -164 356 -179 q 370 -195 370 -228 l 370 -228 l 370 -328 q 370 -361 356 -376 q 341 -392 312 -392 l 312 -392 q 283 -392 269 -376 q 254 -361 254 -328 l 254 -328 l 254 -228 q 254 -195 269 -179 q 283 -164 312 -164 l 312 -164 z"},"104":{"x_min":18,"x_max":682,"ha":696,"o":"m 638 -164 l 682 -164 l 682 0 l 366 0 l 366 -164 l 408 -164 l 408 -328 q 408 -361 394 -376 q 380 -392 352 -392 l 352 -392 q 292 -392 292 -328 l 292 -328 l 292 -164 l 334 -164 l 334 0 l 18 0 l 18 -164 l 62 -164 l 62 -614 l 18 -614 l 18 -778 l 292 -778 l 292 -478 q 329 -524 372 -547 q 415 -570 472 -570 l 472 -570 q 555 -570 597 -518 q 638 -466 638 -375 l 638 -375 l 638 -164 z"},"105":{"x_min":18,"x_max":336,"ha":346,"o":"m 270 -611 l 66 -611 l 66 -778 l 270 -778 l 270 -611 z m 336 0 l 18 0 l 18 -164 l 62 -164 l 62 -392 l 18 -392 l 18 -556 l 292 -556 l 292 -164 l 336 -164 l 336 0 z"},"106":{"x_min":-104,"x_max":287,"ha":313,"o":"m 265 -611 l 61 -611 l 61 -778 l 265 -778 l 265 -611 z m 54 236 q 13 236 -30 229 q -74 222 -104 214 l -104 214 l -104 51 q -57 58 -20 58 l -20 58 q 57 58 57 -14 l 57 -14 l 57 -392 l -10 -392 l -10 -556 l 287 -556 l 287 -34 q 287 103 229 170 q 171 236 54 236 l 54 236 z"},"107":{"x_min":18,"x_max":664,"ha":678,"o":"m 525 -297 l 621 -164 l 664 -164 l 664 0 l 419 0 l 316 -192 l 292 -192 l 292 0 l 18 0 l 18 -164 l 62 -164 l 62 -614 l 18 -614 l 18 -778 l 292 -778 l 292 -372 l 316 -372 l 440 -556 l 651 -556 l 651 -392 l 610 -392 l 525 -297 z"},"108":{"x_min":18,"x_max":336,"ha":350,"o":"m 336 1 l 18 1 l 18 -164 l 62 -164 l 62 -614 l 18 -614 l 18 -778 l 292 -778 l 292 -164 l 336 -164 l 336 1 z"},"109":{"x_min":18,"x_max":1028,"ha":1042,"o":"m 984 -164 l 1028 -164 l 1028 0 l 712 0 l 712 -164 l 754 -164 l 754 -328 q 754 -361 740 -376 q 726 -392 698 -392 l 698 -392 q 638 -392 638 -328 l 638 -328 l 638 -164 l 680 -164 l 680 0 l 366 0 l 366 -164 l 408 -164 l 408 -328 q 408 -361 394 -376 q 380 -392 352 -392 l 352 -392 q 292 -392 292 -328 l 292 -328 l 292 -164 l 334 -164 l 334 0 l 18 0 l 18 -164 l 62 -164 l 62 -392 l 18 -392 l 18 -556 l 292 -556 l 292 -478 q 364 -570 472 -570 l 472 -570 q 533 -570 572 -541 q 610 -513 626 -461 l 626 -461 q 662 -513 709 -541 q 755 -569 818 -569 l 818 -569 q 901 -569 943 -517 q 984 -465 984 -374 l 984 -374 l 984 -164 z"},"110":{"x_min":18,"x_max":682,"ha":696,"o":"m 638 -164 l 682 -164 l 682 0 l 366 0 l 366 -164 l 408 -164 l 408 -328 q 408 -361 394 -376 q 380 -392 352 -392 l 352 -392 q 292 -392 292 -328 l 292 -328 l 292 -164 l 334 -164 l 334 0 l 18 0 l 18 -164 l 62 -164 l 62 -392 l 18 -392 l 18 -556 l 292 -556 l 292 -478 q 364 -570 472 -570 l 472 -570 q 555 -570 597 -518 q 638 -466 638 -375 l 638 -375 l 638 -164 z"},"111":{"x_min":14,"x_max":618,"ha":632,"o":"m 316 14 q 174 14 94 -60 q 14 -135 14 -278 l 14 -278 q 14 -421 94 -495 q 174 -570 316 -570 l 316 -570 q 460 -570 539 -494 q 618 -419 618 -278 l 618 -278 q 618 -135 538 -60 q 458 14 316 14 l 316 14 z m 316 -164 q 345 -164 360 -179 q 374 -195 374 -228 l 374 -228 l 374 -328 q 374 -361 360 -376 q 345 -392 316 -392 l 316 -392 q 287 -392 273 -376 q 258 -361 258 -328 l 258 -328 l 258 -228 q 258 -195 273 -179 q 287 -164 316 -164 l 316 -164 z"},"112":{"x_min":14,"x_max":648,"ha":658,"o":"m 14 222 l 14 58 l 58 58 l 58 -392 l 14 -392 l 14 -556 l 288 -556 l 288 -488 q 313 -520 353 -545 q 392 -570 443 -570 l 443 -570 q 545 -570 597 -494 q 648 -418 648 -278 l 648 -278 q 648 -138 597 -62 q 545 14 443 14 l 443 14 q 392 14 353 -11 q 313 -36 288 -68 l 288 -68 l 288 58 l 357 58 l 357 222 l 14 222 z m 346 -164 q 375 -164 390 -179 q 404 -195 404 -228 l 404 -228 l 404 -328 q 404 -361 390 -376 q 375 -392 346 -392 l 346 -392 q 317 -392 303 -376 q 288 -361 288 -328 l 288 -328 l 288 -228 q 288 -195 303 -179 q 317 -164 346 -164 l 346 -164 z"},"113":{"x_min":10,"x_max":644,"ha":652,"o":"m 301 222 l 301 58 l 370 58 l 370 -68 q 345 -36 306 -11 q 266 14 215 14 l 215 14 q 113 14 62 -62 q 10 -138 10 -278 l 10 -278 q 10 -418 62 -494 q 113 -570 215 -570 l 215 -570 q 266 -570 306 -545 q 345 -520 370 -488 l 370 -488 l 370 -556 l 644 -556 l 644 -392 l 600 -392 l 600 222 l 301 222 z m 312 -164 q 341 -164 356 -179 q 370 -195 370 -228 l 370 -228 l 370 -328 q 370 -361 356 -376 q 341 -392 312 -392 l 312 -392 q 283 -392 269 -376 q 254 -361 254 -328 l 254 -328 l 254 -228 q 254 -195 269 -179 q 283 -164 312 -164 l 312 -164 z"},"114":{"x_min":20,"x_max":513,"ha":527,"o":"m 445 -570 q 465 -570 483 -566 q 501 -562 513 -556 l 513 -556 l 513 -365 q 472 -382 425 -382 l 425 -382 q 362 -382 328 -349 q 294 -316 294 -251 l 294 -251 l 294 -164 l 384 -164 l 384 0 l 20 0 l 20 -164 l 64 -164 l 64 -392 l 20 -392 l 20 -556 l 294 -556 l 294 -483 q 322 -525 358 -547 q 394 -570 445 -570 l 445 -570 z"},"115":{"x_min":18,"x_max":505,"ha":519,"o":"m 261 14 q 135 14 18 -26 l 18 -26 l 18 -174 l 180 -174 l 180 -164 q 180 -116 241 -116 l 241 -116 q 295 -116 295 -153 l 295 -153 q 295 -173 280 -183 q 264 -193 225 -200 l 225 -200 l 175 -209 q 18 -237 18 -387 l 18 -387 q 18 -474 84 -522 q 150 -570 262 -570 l 262 -570 q 387 -570 473 -528 l 473 -528 l 473 -389 l 321 -389 l 321 -399 q 321 -419 308 -429 q 294 -440 268 -440 l 268 -440 q 218 -440 218 -408 l 218 -408 q 218 -391 232 -382 q 246 -373 283 -365 l 283 -365 l 340 -354 q 429 -337 467 -291 q 505 -245 505 -173 l 505 -173 q 505 -82 442 -34 q 378 14 261 14 l 261 14 z"},"116":{"x_min":8,"x_max":437,"ha":451,"o":"m 265 14 q 159 14 106 -37 q 52 -89 52 -211 l 52 -211 l 52 -392 l 8 -392 l 8 -556 q 46 -556 65 -575 q 84 -595 84 -629 l 84 -629 l 84 -674 l 296 -674 l 296 -556 l 431 -556 l 431 -392 l 296 -392 l 296 -228 q 296 -195 311 -179 q 325 -164 354 -164 l 354 -164 q 392 -164 437 -173 l 437 -173 l 437 -16 q 409 -5 362 5 q 314 14 265 14 l 265 14 z"},"117":{"x_min":12,"x_max":676,"ha":686,"o":"m 632 -164 l 676 -164 l 676 0 l 402 0 l 402 -78 q 330 14 222 14 l 222 14 q 139 14 98 -38 q 56 -90 56 -181 l 56 -181 l 56 -392 l 12 -392 l 12 -556 l 286 -556 l 286 -228 q 286 -195 301 -179 q 315 -164 344 -164 l 344 -164 q 373 -164 388 -179 q 402 -195 402 -228 l 402 -228 l 402 -392 l 348 -392 l 348 -556 l 632 -556 l 632 -164 z"},"118":{"x_min":10,"x_max":641,"ha":651,"o":"m 476 0 l 178 0 l 52 -392 l 10 -392 l 10 -556 l 319 -556 l 319 -392 l 277 -392 l 330 -194 l 340 -194 l 393 -392 l 351 -392 l 351 -556 l 641 -556 l 641 -392 l 599 -392 l 476 0 z"},"119":{"x_min":10,"x_max":946,"ha":956,"o":"m 414 0 l 184 0 l 52 -392 l 10 -392 l 10 -556 l 319 -556 l 319 -392 l 277 -392 l 313 -236 l 323 -236 l 396 -556 l 580 -556 l 653 -236 l 663 -236 l 698 -392 l 656 -392 l 656 -556 l 946 -556 l 946 -392 l 904 -392 l 777 0 l 534 0 l 479 -278 l 469 -278 l 414 0 z"},"120":{"x_min":12,"x_max":624,"ha":636,"o":"m 463 -286 l 592 -164 l 624 -164 l 624 0 l 312 0 l 312 -164 l 340 -164 l 301 -223 l 291 -223 l 252 -164 l 280 -164 l 280 0 l 12 0 l 12 -164 l 54 -164 l 175 -272 l 48 -392 l 16 -392 l 16 -556 l 328 -556 l 328 -392 l 300 -392 l 339 -334 l 349 -334 l 388 -392 l 360 -392 l 360 -556 l 620 -556 l 620 -392 l 578 -392 l 463 -286 z"},"121":{"x_min":10,"x_max":620,"ha":632,"o":"m 342 -556 l 620 -556 l 620 -392 l 582 -392 l 451 -45 q 402 86 339 152 q 276 217 173 217 l 173 217 q 131 217 88 209 q 45 200 10 185 l 10 185 l 10 4 l 148 4 l 148 14 q 148 39 174 39 l 174 39 q 197 39 209 17 l 209 17 l 51 -392 l 13 -392 l 13 -556 l 310 -556 l 310 -392 l 276 -392 l 328 -236 l 376 -392 l 342 -392 l 342 -556 z"},"122":{"x_min":14,"x_max":554,"ha":568,"o":"m 554 0 l 14 0 l 14 -149 l 258 -392 l 169 -392 l 169 -356 l 20 -356 l 20 -556 l 545 -556 l 545 -413 l 307 -164 l 403 -164 l 403 -220 l 554 -220 l 554 0 z"},"123":{"x_min":22,"x_max":271,"ha":299,"o":"m 271 247 q 211 247 165 238 q 118 229 85 197 q 52 165 52 102 l 52 102 q 52 63 55 36 q 58 9 65 -39 l 65 -39 q 78 -113 78 -179 l 78 -179 q 78 -216 61 -232 q 44 -249 22 -249 l 22 -249 l 22 -358 q 44 -358 61 -374 q 78 -390 78 -428 l 78 -428 q 78 -493 65 -567 l 65 -567 q 58 -615 55 -642 q 52 -670 52 -709 l 52 -709 q 52 -771 85 -803 q 118 -835 165 -844 q 211 -853 271 -853 l 271 -853 l 271 -764 q 217 -764 217 -699 l 217 -699 q 217 -665 220 -638 q 223 -611 229 -574 l 229 -574 q 241 -498 241 -440 l 241 -440 q 241 -336 164 -303 l 164 -303 q 241 -269 241 -167 l 241 -167 q 241 -109 229 -33 l 229 -33 q 223 4 220 31 q 217 58 217 92 l 217 92 q 217 129 233 144 q 249 158 271 158 l 271 158 l 271 247 z"},"124":{"x_min":62,"x_max":193,"ha":255,"o":"m 193 327 l 62 327 l 62 -940 l 193 -940 l 193 327 z"},"125":{"x_min":28,"x_max":277,"ha":299,"o":"m 28 247 l 28 158 q 83 158 83 92 l 83 92 q 83 58 80 31 q 77 4 71 -33 l 71 -33 q 58 -104 58 -167 l 58 -167 q 58 -269 136 -303 l 136 -303 q 58 -336 58 -440 l 58 -440 q 58 -503 71 -574 l 71 -574 q 77 -611 80 -638 q 83 -665 83 -699 l 83 -699 q 83 -736 68 -750 q 53 -764 28 -764 l 28 -764 l 28 -853 q 88 -853 135 -844 q 181 -835 214 -803 q 247 -771 247 -709 l 247 -709 q 247 -643 234 -567 l 234 -567 q 222 -487 222 -428 l 222 -428 q 222 -390 239 -374 q 255 -358 277 -358 l 277 -358 l 277 -249 q 256 -249 239 -232 q 222 -216 222 -179 l 222 -179 q 222 -113 235 -39 l 235 -39 q 241 2 244 33 q 247 63 247 102 l 247 102 q 247 165 214 197 q 181 229 135 238 q 88 247 28 247 l 28 247 z"},"126":{"x_min":30,"x_max":588,"ha":618,"o":"m 443 -288 q 405 -288 374 -294 q 342 -300 301 -312 l 301 -312 q 257 -324 225 -330 q 193 -336 153 -336 l 153 -336 q 116 -336 100 -324 q 83 -313 83 -299 l 83 -299 l 30 -299 q 30 -481 182 -481 l 182 -481 q 219 -481 247 -475 q 275 -470 323 -458 l 323 -458 q 366 -446 397 -440 q 428 -434 467 -434 l 467 -434 q 532 -434 532 -470 l 532 -470 l 588 -470 q 588 -392 561 -340 q 533 -288 443 -288 l 443 -288 z"}}}
